<?xml version="1.0" standalone="yes"?>

<svg version="1.1" viewBox="0.0 0.0 960.0 720.0" fill="none" stroke="none" stroke-linecap="square" stroke-miterlimit="10" xmlns="http://www.w3.org/2000/svg" xmlns:xlink="http://www.w3.org/1999/xlink"><clipPath id="p.0"><path d="m0 0l960.0 0l0 720.0l-960.0 0l0 -720.0z" clip-rule="nonzero"></path></clipPath><g clip-path="url(#p.0)"><path fill="#000000" fill-opacity="0.0" d="m0 0l960.0 0l0 720.0l-960.0 0z" fill-rule="evenodd"></path><path fill="#999999" d="m0.004483727 157.09985l0 0l0 0c0 -9.439346 3.7497654 -18.49208 10.42439 -25.166702c6.6746264 -6.674629 15.727361 -10.424393 25.166706 -10.424393l35.591095 0c3.2806396E-4 0 5.950928E-4 2.670288E-4 5.950928E-4 5.874634E-4l-5.950928E-4 71.1816l0 0c0 3.2043457E-4 -2.670288E-4 5.950928E-4 -5.950928E-4 5.950928E-4l-35.5905 -5.950928E-4l0 0c-19.656422 0 -35.5911 -15.934677 -35.5911 -35.591095z" fill-rule="evenodd"></path><path stroke="#000000" stroke-width="1.0" stroke-linejoin="round" stroke-linecap="butt" d="m0.004483727 157.09985l0 0l0 0c0 -9.439346 3.7497654 -18.49208 10.42439 -25.166702c6.6746264 -6.674629 15.727361 -10.424393 25.166706 -10.424393l35.591095 0c3.2806396E-4 0 5.950928E-4 2.670288E-4 5.950928E-4 5.874634E-4l-5.950928E-4 71.1816l0 0c0 3.2043457E-4 -2.670288E-4 5.950928E-4 -5.950928E-4 5.950928E-4l-35.5905 -5.950928E-4l0 0c-19.656422 0 -35.5911 -15.934677 -35.5911 -35.591095z" fill-rule="evenodd"></path><path fill="#cccccc" d="m35.62618 183.88103l0 0c-14.807732 0 -26.811771 -12.004044 -26.811771 -26.811768l0 0c0 -7.1109314 2.8248034 -13.930618 7.8529854 -18.958801c5.028183 -5.028183 11.847862 -7.8529816 18.958786 -7.8529816l0 0c14.807735 0 26.811775 12.004044 26.811775 26.811783l0 0c0 14.807724 -12.00404 26.811768 -26.811775 26.811768zm0 -8.866653l0 0c9.910816 0 17.945122 -8.034302 17.945122 -17.945114c0 -9.910828 -8.034306 -17.94513 -17.945122 -17.94513c-9.910814 0 -17.945118 8.034302 -17.945118 17.94513l0 0c0 9.910812 8.034304 17.945114 17.945118 17.945114z" fill-rule="evenodd"></path><path stroke="#000000" stroke-width="1.0" stroke-linejoin="round" stroke-linecap="butt" d="m35.62618 183.88103l0 0c-14.807732 0 -26.811771 -12.004044 -26.811771 -26.811768l0 0c0 -7.1109314 2.8248034 -13.930618 7.8529854 -18.958801c5.028183 -5.028183 11.847862 -7.8529816 18.958786 -7.8529816l0 0c14.807735 0 26.811775 12.004044 26.811775 26.811783l0 0c0 14.807724 -12.00404 26.811768 -26.811775 26.811768zm0 -8.866653l0 0c9.910816 0 17.945122 -8.034302 17.945122 -17.945114c0 -9.910828 -8.034306 -17.94513 -17.945122 -17.94513c-9.910814 0 -17.945118 8.034302 -17.945118 17.94513l0 0c0 9.910812 8.034304 17.945114 17.945118 17.945114z" fill-rule="evenodd"></path><path fill="#666666" d="m71.38592 104.40372l22.784431 -13.935432l208.8364 0l5.4208984 8.626038l84.06781 -0.11148834l5.8621826 7.30217l39.706696 0l0 8.2962265l12.38858 0l0 88.04871l-11.831177 0l0 8.407715l-40.045776 0l-4.8634644 7.186035l-84.84357 0l-5.639221 8.96048l-208.94788 0l-22.89592 -13.494141z" fill-rule="evenodd"></path><path stroke="#000000" stroke-width="1.0" stroke-linejoin="round" stroke-linecap="butt" d="m71.38592 104.40372l22.784431 -13.935432l208.8364 0l5.4208984 8.626038l84.06781 -0.11148834l5.8621826 7.30217l39.706696 0l0 8.2962265l12.38858 0l0 88.04871l-11.831177 0l0 8.407715l-40.045776 0l-4.8634644 7.186035l-84.84357 0l-5.639221 8.96048l-208.94788 0l-22.89592 -13.494141z" fill-rule="evenodd"></path><path fill="#999999" d="m0.004483727 408.11963l0 0l0 0c0 -9.439362 3.7497654 -18.492096 10.42439 -25.166718c6.6746264 -6.6746216 15.727361 -10.424377 25.166706 -10.424377l35.591095 0c3.2806396E-4 0 5.950928E-4 2.4414062E-4 5.950928E-4 5.79834E-4l-5.950928E-4 71.18161l0 0c0 3.0517578E-4 -2.670288E-4 5.79834E-4 -5.950928E-4 5.79834E-4l-35.5905 -5.79834E-4l0 0c-19.656422 0 -35.5911 -15.934692 -35.5911 -35.591095z" fill-rule="evenodd"></path><path stroke="#000000" stroke-width="1.0" stroke-linejoin="round" stroke-linecap="butt" d="m0.004483727 408.11963l0 0l0 0c0 -9.439362 3.7497654 -18.492096 10.42439 -25.166718c6.6746264 -6.6746216 15.727361 -10.424377 25.166706 -10.424377l35.591095 0c3.2806396E-4 0 5.950928E-4 2.4414062E-4 5.950928E-4 5.79834E-4l-5.950928E-4 71.18161l0 0c0 3.0517578E-4 -2.670288E-4 5.79834E-4 -5.950928E-4 5.79834E-4l-35.5905 -5.79834E-4l0 0c-19.656422 0 -35.5911 -15.934692 -35.5911 -35.591095z" fill-rule="evenodd"></path><path fill="#cccccc" d="m35.62618 434.9008l0 0c-14.807732 0 -26.811771 -12.004028 -26.811771 -26.811768l0 0c0 -7.1109314 2.8248034 -13.930603 7.8529854 -18.958801c5.028183 -5.0281677 11.847862 -7.8529663 18.958786 -7.8529663l0 0c14.807735 0 26.811775 12.004028 26.811775 26.811768l0 0c0 14.807739 -12.00404 26.811768 -26.811775 26.811768zm0 -8.866638l0 0c9.910816 0 17.945122 -8.034302 17.945122 -17.94513c0 -9.910828 -8.034306 -17.94513 -17.945122 -17.94513c-9.910814 0 -17.945118 8.034302 -17.945118 17.94513l0 0c0 9.910828 8.034304 17.94513 17.945118 17.94513z" fill-rule="evenodd"></path><path stroke="#000000" stroke-width="1.0" stroke-linejoin="round" stroke-linecap="butt" d="m35.62618 434.9008l0 0c-14.807732 0 -26.811771 -12.004028 -26.811771 -26.811768l0 0c0 -7.1109314 2.8248034 -13.930603 7.8529854 -18.958801c5.028183 -5.0281677 11.847862 -7.8529663 18.958786 -7.8529663l0 0c14.807735 0 26.811775 12.004028 26.811775 26.811768l0 0c0 14.807739 -12.00404 26.811768 -26.811775 26.811768zm0 -8.866638l0 0c9.910816 0 17.945122 -8.034302 17.945122 -17.94513c0 -9.910828 -8.034306 -17.94513 -17.945122 -17.94513c-9.910814 0 -17.945118 8.034302 -17.945118 17.94513l0 0c0 9.910828 8.034304 17.94513 17.945118 17.94513z" fill-rule="evenodd"></path><path fill="#666666" d="m71.38592 355.4235l22.784431 -13.935455l208.8364 0l5.4208984 8.626038l84.06781 -0.11148071l5.8621826 7.302185l39.706696 0l0 8.296204l12.38858 0l0 88.04874l-11.831177 0l0 8.407684l-40.045776 0l-4.8634644 7.1860657l-84.84357 0l-5.639221 8.96048l-208.94788 0l-22.89592 -13.494141z" fill-rule="evenodd"></path><path stroke="#000000" stroke-width="1.0" stroke-linejoin="round" stroke-linecap="butt" d="m71.38592 355.4235l22.784431 -13.935455l208.8364 0l5.4208984 8.626038l84.06781 -0.11148071l5.8621826 7.302185l39.706696 0l0 8.296204l12.38858 0l0 88.04874l-11.831177 0l0 8.407684l-40.045776 0l-4.8634644 7.1860657l-84.84357 0l-5.639221 8.96048l-208.94788 0l-22.89592 -13.494141z" fill-rule="evenodd"></path><path fill="#999999" d="m0.004483727 649.9165l0 0l0 0c0 -9.439331 3.7497654 -18.492065 10.42439 -25.166687c6.6746264 -6.6746216 15.727361 -10.424438 25.166706 -10.424438l35.591095 0c3.2806396E-4 0 5.950928E-4 3.0517578E-4 5.950928E-4 6.1035156E-4l-5.950928E-4 71.18158l0 0c0 3.6621094E-4 -2.670288E-4 6.1035156E-4 -5.950928E-4 6.1035156E-4l-35.5905 -6.1035156E-4l0 0c-19.656422 0 -35.5911 -15.934631 -35.5911 -35.591064z" fill-rule="evenodd"></path><path stroke="#000000" stroke-width="1.0" stroke-linejoin="round" stroke-linecap="butt" d="m0.004483727 649.9165l0 0l0 0c0 -9.439331 3.7497654 -18.492065 10.42439 -25.166687c6.6746264 -6.6746216 15.727361 -10.424438 25.166706 -10.424438l35.591095 0c3.2806396E-4 0 5.950928E-4 3.0517578E-4 5.950928E-4 6.1035156E-4l-5.950928E-4 71.18158l0 0c0 3.6621094E-4 -2.670288E-4 6.1035156E-4 -5.950928E-4 6.1035156E-4l-35.5905 -6.1035156E-4l0 0c-19.656422 0 -35.5911 -15.934631 -35.5911 -35.591064z" fill-rule="evenodd"></path><path fill="#cccccc" d="m35.62618 676.6977l0 0c-14.807732 0 -26.811771 -12.004028 -26.811771 -26.811768l0 0c0 -7.110962 2.8248034 -13.930603 7.8529854 -18.958801c5.028183 -5.0281982 11.847862 -7.8529663 18.958786 -7.8529663l0 0c14.807735 0 26.811775 12.004028 26.811775 26.811768l0 0c0 14.807739 -12.00404 26.811768 -26.811775 26.811768zm0 -8.866699l0 0c9.910816 0 17.945122 -8.034302 17.945122 -17.945068c0 -9.910828 -8.034306 -17.94513 -17.945122 -17.94513c-9.910814 0 -17.945118 8.034302 -17.945118 17.94513l0 0c0 9.910767 8.034304 17.945068 17.945118 17.945068z" fill-rule="evenodd"></path><path stroke="#000000" stroke-width="1.0" stroke-linejoin="round" stroke-linecap="butt" d="m35.62618 676.6977l0 0c-14.807732 0 -26.811771 -12.004028 -26.811771 -26.811768l0 0c0 -7.110962 2.8248034 -13.930603 7.8529854 -18.958801c5.028183 -5.0281982 11.847862 -7.8529663 18.958786 -7.8529663l0 0c14.807735 0 26.811775 12.004028 26.811775 26.811768l0 0c0 14.807739 -12.00404 26.811768 -26.811775 26.811768zm0 -8.866699l0 0c9.910816 0 17.945122 -8.034302 17.945122 -17.945068c0 -9.910828 -8.034306 -17.94513 -17.945122 -17.94513c-9.910814 0 -17.945118 8.034302 -17.945118 17.94513l0 0c0 9.910767 8.034304 17.945068 17.945118 17.945068z" fill-rule="evenodd"></path><path fill="#666666" d="m71.38592 597.2204l22.784431 -13.935486l208.8364 0l5.4208984 8.626038l84.06781 -0.111450195l5.8621826 7.302124l39.706696 0l0 8.296265l12.38858 0l0 88.048706l-11.831177 0l0 8.407715l-40.045776 0l-4.8634644 7.186035l-84.84357 0l-5.639221 8.96051l-208.94788 0l-22.89592 -13.494202z" fill-rule="evenodd"></path><path stroke="#000000" stroke-width="1.0" stroke-linejoin="round" stroke-linecap="butt" d="m71.38592 597.2204l22.784431 -13.935486l208.8364 0l5.4208984 8.626038l84.06781 -0.111450195l5.8621826 7.302124l39.706696 0l0 8.296265l12.38858 0l0 88.048706l-11.831177 0l0 8.407715l-40.045776 0l-4.8634644 7.186035l-84.84357 0l-5.639221 8.96051l-208.94788 0l-22.89592 -13.494202z" fill-rule="evenodd"></path><path fill="#cccccc" d="m450.6538 117.80015l155.02362 0l0 78.58268l-155.02362 0z" fill-rule="evenodd"></path><path stroke="#000000" stroke-width="1.0" stroke-linejoin="round" stroke-linecap="butt" d="m450.6538 117.80015l155.02362 0l0 78.58268l-155.02362 0z" fill-rule="evenodd"></path><path fill="#cccccc" d="m450.6538 368.82224l116.787415 0l0 78.58267l-116.787415 0z" fill-rule="evenodd"></path><path stroke="#000000" stroke-width="1.0" stroke-linejoin="round" stroke-linecap="butt" d="m450.6538 368.82224l116.787415 0l0 78.58267l-116.787415 0z" fill-rule="evenodd"></path><path fill="#cccccc" d="m450.6538 610.61914l18.834625 0l0 78.58264l-18.834625 0z" fill-rule="evenodd"></path><path stroke="#000000" stroke-width="1.0" stroke-linejoin="round" stroke-linecap="butt" d="m450.6538 610.61914l18.834625 0l0 78.58264l-18.834625 0z" fill-rule="evenodd"></path><path fill="#999999" d="m677.0516 157.09581l0 0l0 0c0 9.439346 -3.7497559 18.49208 -10.424438 25.166718c-6.6746216 6.6746216 -15.727356 10.424393 -25.166687 10.424393l-35.591064 0c-3.6621094E-4 0 -6.1035156E-4 -2.746582E-4 -6.1035156E-4 -5.950928E-4l6.1035156E-4 -71.1816l0 0c0 -3.2806396E-4 2.4414062E-4 -5.950928E-4 5.493164E-4 -5.950928E-4l35.590515 5.950928E-4l0 0c19.656433 0 35.591125 15.9346695 35.591125 35.591087z" fill-rule="evenodd"></path><path stroke="#000000" stroke-width="1.0" stroke-linejoin="round" stroke-linecap="butt" d="m677.0516 157.09581l0 0l0 0c0 9.439346 -3.7497559 18.49208 -10.424438 25.166718c-6.6746216 6.6746216 -15.727356 10.424393 -25.166687 10.424393l-35.591064 0c-3.6621094E-4 0 -6.1035156E-4 -2.746582E-4 -6.1035156E-4 -5.950928E-4l6.1035156E-4 -71.1816l0 0c0 -3.2806396E-4 2.4414062E-4 -5.950928E-4 5.493164E-4 -5.950928E-4l35.590515 5.950928E-4l0 0c19.656433 0 35.591125 15.9346695 35.591125 35.591087z" fill-rule="evenodd"></path><path fill="#cccccc" d="m641.4299 130.31464l0 0c14.807739 0 26.811768 12.004044 26.811768 26.811783l0 0c0 7.110916 -2.824829 13.930603 -7.8529663 18.958786c-5.0281982 5.028183 -11.8479 7.8529816 -18.958801 7.8529816l0 0c-14.807739 0 -26.811768 -12.004044 -26.811768 -26.811768l0 0c0 -14.807739 12.004028 -26.811783 26.811768 -26.811783zm0 8.866653l0 0c-9.910828 0 -17.94513 8.034317 -17.94513 17.94513c0 9.910812 8.034302 17.945114 17.94513 17.945114c9.910828 0 17.94513 -8.034302 17.94513 -17.945114l0 0c0 -9.910812 -8.034302 -17.94513 -17.94513 -17.94513z" fill-rule="evenodd"></path><path stroke="#000000" stroke-width="1.0" stroke-linejoin="round" stroke-linecap="butt" d="m641.4299 130.31464l0 0c14.807739 0 26.811768 12.004044 26.811768 26.811783l0 0c0 7.110916 -2.824829 13.930603 -7.8529663 18.958786c-5.0281982 5.028183 -11.8479 7.8529816 -18.958801 7.8529816l0 0c-14.807739 0 -26.811768 -12.004044 -26.811768 -26.811768l0 0c0 -14.807739 12.004028 -26.811783 26.811768 -26.811783zm0 8.866653l0 0c-9.910828 0 -17.94513 8.034317 -17.94513 17.94513c0 9.910812 8.034302 17.945114 17.94513 17.945114c9.910828 0 17.94513 -8.034302 17.94513 -17.945114l0 0c0 -9.910812 -8.034302 -17.94513 -17.94513 -17.94513z" fill-rule="evenodd"></path><path fill="#999999" d="m638.6087 408.1179l0 0l0 0c0 9.439362 -3.7497559 18.492096 -10.424377 25.166718c-6.6746216 6.6746216 -15.727356 10.424377 -25.166748 10.424377l-35.591064 0c-3.6621094E-4 0 -6.1035156E-4 -2.4414062E-4 -6.1035156E-4 -5.79834E-4l6.1035156E-4 -71.18161l0 0c0 -3.0517578E-4 2.4414062E-4 -5.79834E-4 6.1035156E-4 -5.79834E-4l35.590454 5.79834E-4l0 0c19.656433 0 35.591125 15.934692 35.591125 35.591095z" fill-rule="evenodd"></path><path stroke="#000000" stroke-width="1.0" stroke-linejoin="round" stroke-linecap="butt" d="m638.6087 408.1179l0 0l0 0c0 9.439362 -3.7497559 18.492096 -10.424377 25.166718c-6.6746216 6.6746216 -15.727356 10.424377 -25.166748 10.424377l-35.591064 0c-3.6621094E-4 0 -6.1035156E-4 -2.4414062E-4 -6.1035156E-4 -5.79834E-4l6.1035156E-4 -71.18161l0 0c0 -3.0517578E-4 2.4414062E-4 -5.79834E-4 6.1035156E-4 -5.79834E-4l35.590454 5.79834E-4l0 0c19.656433 0 35.591125 15.934692 35.591125 35.591095z" fill-rule="evenodd"></path><path fill="#cccccc" d="m602.987 381.33673l0 0c14.807739 0 26.811768 12.004028 26.811768 26.811768l0 0c0 7.1109314 -2.824829 13.930603 -7.8529663 18.958801c-5.0281982 5.0281677 -11.8479 7.8529663 -18.958801 7.8529663l0 0c-14.807739 0 -26.811768 -12.004028 -26.811768 -26.811768l0 0c0 -14.807739 12.004028 -26.811768 26.811768 -26.811768zm0 8.866638l0 0c-9.910828 0 -17.94513 8.034332 -17.94513 17.94513c0 9.910828 8.034302 17.94513 17.94513 17.94513c9.910828 0 17.94513 -8.034302 17.94513 -17.94513l0 0c0 -9.910797 -8.034302 -17.94513 -17.94513 -17.94513z" fill-rule="evenodd"></path><path stroke="#000000" stroke-width="1.0" stroke-linejoin="round" stroke-linecap="butt" d="m602.987 381.33673l0 0c14.807739 0 26.811768 12.004028 26.811768 26.811768l0 0c0 7.1109314 -2.824829 13.930603 -7.8529663 18.958801c-5.0281982 5.0281677 -11.8479 7.8529663 -18.958801 7.8529663l0 0c-14.807739 0 -26.811768 -12.004028 -26.811768 -26.811768l0 0c0 -14.807739 12.004028 -26.811768 26.811768 -26.811768zm0 8.866638l0 0c-9.910828 0 -17.94513 8.034332 -17.94513 17.94513c0 9.910828 8.034302 17.94513 17.94513 17.94513c9.910828 0 17.94513 -8.034302 17.94513 -17.94513l0 0c0 -9.910797 -8.034302 -17.94513 -17.94513 -17.94513z" fill-rule="evenodd"></path><path fill="#999999" d="m540.6714 649.9148l0 0l0 0c0 9.439331 -3.7497559 18.492065 -10.424377 25.166687c-6.6746216 6.6746216 -15.727356 10.424377 -25.166718 10.424377l-35.591095 0c-3.3569336E-4 0 -6.1035156E-4 -2.4414062E-4 -6.1035156E-4 -5.493164E-4l6.1035156E-4 -71.18164l0 0c0 -3.0517578E-4 2.4414062E-4 -5.493164E-4 5.79834E-4 -5.493164E-4l35.590515 5.493164E-4l0 0c19.656403 0 35.591095 15.934692 35.591095 35.591125z" fill-rule="evenodd"></path><path stroke="#000000" stroke-width="1.0" stroke-linejoin="round" stroke-linecap="butt" d="m540.6714 649.9148l0 0l0 0c0 9.439331 -3.7497559 18.492065 -10.424377 25.166687c-6.6746216 6.6746216 -15.727356 10.424377 -25.166718 10.424377l-35.591095 0c-3.3569336E-4 0 -6.1035156E-4 -2.4414062E-4 -6.1035156E-4 -5.493164E-4l6.1035156E-4 -71.18164l0 0c0 -3.0517578E-4 2.4414062E-4 -5.493164E-4 5.79834E-4 -5.493164E-4l35.590515 5.493164E-4l0 0c19.656403 0 35.591095 15.934692 35.591095 35.591125z" fill-rule="evenodd"></path><path fill="#cccccc" d="m505.04968 623.1336l0 0c14.807739 0 26.811768 12.004028 26.811768 26.811768l0 0c0 7.110962 -2.824829 13.930603 -7.8529663 18.958801c-5.0281982 5.0281982 -11.8479 7.8529663 -18.958801 7.8529663l0 0c-14.807739 0 -26.811768 -12.004028 -26.811768 -26.811768l0 0c0 -14.807739 12.004028 -26.811768 26.811768 -26.811768zm0 8.866638l0 0c-9.910828 0 -17.94513 8.034302 -17.94513 17.94513c0 9.910828 8.034302 17.94513 17.94513 17.94513c9.910828 0 17.94513 -8.034302 17.94513 -17.94513l0 0c0 -9.910828 -8.034302 -17.94513 -17.94513 -17.94513z" fill-rule="evenodd"></path><path stroke="#000000" stroke-width="1.0" stroke-linejoin="round" stroke-linecap="butt" d="m505.04968 623.1336l0 0c14.807739 0 26.811768 12.004028 26.811768 26.811768l0 0c0 7.110962 -2.824829 13.930603 -7.8529663 18.958801c-5.0281982 5.0281982 -11.8479 7.8529663 -18.958801 7.8529663l0 0c-14.807739 0 -26.811768 -12.004028 -26.811768 -26.811768l0 0c0 -14.807739 12.004028 -26.811768 26.811768 -26.811768zm0 8.866638l0 0c-9.910828 0 -17.94513 8.034302 -17.94513 17.94513c0 9.910828 8.034302 17.94513 17.94513 17.94513c9.910828 0 17.94513 -8.034302 17.94513 -17.94513l0 0c0 -9.910828 -8.034302 -17.94513 -17.94513 -17.94513z" fill-rule="evenodd"></path><path fill="#000000" fill-opacity="0.0" d="m0 0l223.9685 0l0 90.456696l-223.9685 0z" fill-rule="evenodd"></path><path fill="#ffffff" d="m28.375 58.716064l-12.328125 0l0 10.078125l14.328125 0l0 3.0625l-18.078125 0l0 -28.4375l17.875 0l0 3.078125l-14.125 0l0 9.140625l12.328125 0l0 3.078125zm13.1875 -0.28125l4.6875 -7.71875l4.21875 0l-6.921875 10.453125l7.140625 10.6875l-4.1875 0l-4.875 -7.90625l-4.890625 7.90625l-4.203125 0l7.140625 -10.6875l-6.921875 -10.453125l4.1875 0l4.625 7.71875zm17.636719 -12.828125l0 5.109375l3.9375 0l0 2.796875l-3.9375 0l0 13.109375q0 1.265625 0.515625 1.90625q0.53125 0.625 1.8125 0.625q0.625 0 1.71875 -0.234375l0 2.9375q-1.4375 0.390625 -2.78125 0.390625q-2.421875 0 -3.65625 -1.46875q-1.21875 -1.46875 -1.21875 -4.15625l0 -13.109375l-3.859375 0l0 -2.796875l3.859375 0l0 -5.109375l3.609375 0zm16.925781 26.640625q-4.296875 0 -7.0 -2.8125q-2.6875 -2.828125 -2.6875 -7.5625l0 -0.65625q0 -3.15625 1.203125 -5.625q1.203125 -2.46875 3.359375 -3.859375q2.15625 -1.40625 4.6875 -1.40625q4.109375 0 6.390625 2.71875q2.296875 2.71875 2.296875 7.78125l0 1.5l-14.3125 0q0.078125 3.125 1.8125 5.046875q1.75 1.921875 4.453125 1.921875q1.90625 0 3.234375 -0.78125q1.328125 -0.78125 2.328125 -2.0625l2.203125 1.71875q-2.65625 4.078125 -7.96875 4.078125zm-0.4375 -18.953125q-2.1875 0 -3.671875 1.59375q-1.484375 1.59375 -1.84375 4.46875l10.59375 0l0 -0.28125q-0.15625 -2.75 -1.484375 -4.265625q-1.328125 -1.515625 -3.59375 -1.515625zm16.285156 -2.578125l0.109375 2.65625q2.421875 -3.046875 6.328125 -3.046875q6.703125 0 6.765625 7.5625l0 13.96875l-3.609375 0l0 -13.984375q-0.03125 -2.28125 -1.0625 -3.375q-1.015625 -1.09375 -3.1875 -1.09375q-1.75 0 -3.078125 0.9375q-1.328125 0.9375 -2.078125 2.453125l0 15.0625l-3.609375 0l0 -21.140625l3.421875 0zm17.773438 10.390625q0 -4.859375 2.296875 -7.8125q2.3125 -2.96875 6.046875 -2.96875q3.703125 0 5.875 2.546875l0 -11.015625l3.609375 0l0 30.0l-3.3125 0l-0.1875 -2.265625q-2.15625 2.65625 -6.03125 2.65625q-3.671875 0 -5.984375 -3.0q-2.3125 -3.015625 -2.3125 -7.859375l0 -0.28125zm3.609375 0.421875q0 3.59375 1.484375 5.625q1.484375 2.03125 4.109375 2.03125q3.4375 0 5.015625 -3.09375l0 -9.703125q-1.625 -2.984375 -4.984375 -2.984375q-2.65625 0 -4.140625 2.046875q-1.484375 2.046875 -1.484375 6.078125zm28.589844 10.71875q-4.296875 0 -7.0 -2.8125q-2.6875 -2.828125 -2.6875 -7.5625l0 -0.65625q0 -3.15625 1.203125 -5.625q1.203125 -2.46875 3.359375 -3.859375q2.15625 -1.40625 4.6875 -1.40625q4.109375 0 6.390625 2.71875q2.296875 2.71875 2.296875 7.78125l0 1.5l-14.3125 0q0.078125 3.125 1.8125 5.046875q1.75 1.921875 4.453125 1.921875q1.90625 0 3.234375 -0.78125q1.328125 -0.78125 2.328125 -2.0625l2.203125 1.71875q-2.65625 4.078125 -7.96875 4.078125zm-0.4375 -18.953125q-2.1875 0 -3.671875 1.59375q-1.484375 1.59375 -1.84375 4.46875l10.59375 0l0 -0.28125q-0.15625 -2.75 -1.484375 -4.265625q-1.328125 -1.515625 -3.59375 -1.515625zm11.988281 7.8125q0 -4.859375 2.296875 -7.8125q2.3125 -2.96875 6.046875 -2.96875q3.703125 0 5.875 2.546875l0 -11.015625l3.609375 0l0 30.0l-3.3125 0l-0.1875 -2.265625q-2.15625 2.65625 -6.03125 2.65625q-3.671875 0 -5.984375 -3.0q-2.3125 -3.015625 -2.3125 -7.859375l0 -0.28125zm3.609375 0.421875q0 3.59375 1.484375 5.625q1.484375 2.03125 4.109375 2.03125q3.4375 0 5.015625 -3.09375l0 -9.703125q-1.625 -2.984375 -4.984375 -2.984375q-2.65625 0 -4.140625 2.046875q-1.484375 2.046875 -1.484375 6.078125z" fill-rule="nonzero"></path><path fill="#000000" fill-opacity="0.0" d="m0 251.02208l223.9685 0l0 90.45671l-223.9685 0z" fill-rule="evenodd"></path><path fill="#ffffff" d="m20.6875 310.2069q-4.828125 -1.390625 -7.03125 -3.40625q-2.1875 -2.03125 -2.1875 -5.0q0 -3.359375 2.671875 -5.546875q2.6875 -2.203125 6.984375 -2.203125q2.9375 0 5.234375 1.140625q2.296875 1.125 3.546875 3.125q1.265625 1.984375 1.265625 4.34375l-3.765625 0q0 -2.578125 -1.640625 -4.046875q-1.640625 -1.484375 -4.640625 -1.484375q-2.765625 0 -4.328125 1.234375q-1.546875 1.21875 -1.546875 3.375q0 1.75 1.46875 2.953125q1.484375 1.1875 5.03125 2.1875q3.546875 1.0 5.546875 2.203125q2.0 1.203125 2.96875 2.8125q0.96875 1.59375 0.96875 3.75q0 3.46875 -2.703125 5.546875q-2.6875 2.078125 -7.203125 2.078125q-2.9375 0 -5.484375 -1.125q-2.53125 -1.125 -3.90625 -3.078125q-1.375 -1.953125 -1.375 -4.4375l3.765625 0q0 2.578125 1.90625 4.078125q1.90625 1.5 5.09375 1.5q2.96875 0 4.546875 -1.203125q1.578125 -1.21875 1.578125 -3.3125q0 -2.09375 -1.46875 -3.234375q-1.453125 -1.140625 -5.296875 -2.25zm27.824219 12.671875q-0.3125 -0.625 -0.5 -2.234375q-2.53125 2.625 -6.015625 2.625q-3.125 0 -5.140625 -1.765625q-2.0 -1.765625 -2.0 -4.484375q0 -3.296875 2.515625 -5.125q2.515625 -1.828125 7.0625 -1.828125l3.515625 0l0 -1.65625q0 -1.90625 -1.140625 -3.015625q-1.125 -1.125 -3.328125 -1.125q-1.9375 0 -3.25 0.984375q-1.3125 0.96875 -1.3125 2.34375l-3.625 0q0 -1.578125 1.125 -3.046875q1.125 -1.484375 3.046875 -2.34375q1.921875 -0.859375 4.21875 -0.859375q3.65625 0 5.71875 1.828125q2.078125 1.828125 2.15625 5.03125l0 9.734375q0 2.90625 0.75 4.625l0 0.3125l-3.796875 0zm-6.0 -2.75q1.703125 0 3.21875 -0.875q1.53125 -0.890625 2.21875 -2.296875l0 -4.328125l-2.828125 0q-6.640625 0 -6.640625 3.875q0 1.703125 1.125 2.671875q1.140625 0.953125 2.90625 0.953125zm13.8515625 -8.0q0 -4.9375 2.28125 -7.859375q2.296875 -2.921875 6.0625 -2.921875q3.859375 0 6.03125 2.734375l0.171875 -2.34375l3.3125 0l0 20.625q0 4.109375 -2.4375 6.46875q-2.4375 2.375 -6.53125 2.375q-2.28125 0 -4.46875 -0.984375q-2.1875 -0.96875 -3.34375 -2.671875l1.875 -2.171875q2.328125 2.875 5.6875 2.875q2.625 0 4.09375 -1.484375q1.484375 -1.484375 1.484375 -4.1875l0 -1.8125q-2.171875 2.5 -5.921875 2.5q-3.703125 0 -6.0 -2.984375q-2.296875 -3.0 -2.296875 -8.15625zm3.640625 0.421875q0 3.5625 1.453125 5.609375q1.46875 2.046875 4.109375 2.046875q3.421875 0 5.015625 -3.109375l0 -9.65625q-1.65625 -3.015625 -4.984375 -3.015625q-2.625 0 -4.109375 2.046875q-1.484375 2.046875 -1.484375 6.078125zm18.800781 -0.421875q0 -4.9375 2.28125 -7.859375q2.296875 -2.921875 6.0625 -2.921875q3.859375 0 6.03125 2.734375l0.171875 -2.34375l3.3125 0l0 20.625q0 4.109375 -2.4375 6.46875q-2.4375 2.375 -6.53125 2.375q-2.28125 0 -4.46875 -0.984375q-2.1875 -0.96875 -3.34375 -2.671875l1.875 -2.171875q2.328125 2.875 5.6875 2.875q2.625 0 4.09375 -1.484375q1.484375 -1.484375 1.484375 -4.1875l0 -1.8125q-2.171875 2.5 -5.921875 2.5q-3.703125 0 -6.0 -2.984375q-2.296875 -3.0 -2.296875 -8.15625zm3.640625 0.421875q0 3.5625 1.453125 5.609375q1.46875 2.046875 4.109375 2.046875q3.421875 0 5.015625 -3.109375l0 -9.65625q-1.65625 -3.015625 -4.984375 -3.015625q-2.625 0 -4.109375 2.046875q-1.484375 2.046875 -1.484375 6.078125zm28.425781 10.71875q-4.296875 0 -7.0 -2.8125q-2.6875 -2.828125 -2.6875 -7.5625l0 -0.65625q0 -3.15625 1.203125 -5.625q1.203125 -2.46875 3.359375 -3.859375q2.15625 -1.40625 4.6875 -1.40625q4.109375 0 6.390625 2.71875q2.296875 2.71875 2.296875 7.78125l0 1.5l-14.3125 0q0.078125 3.125 1.8125 5.046875q1.75 1.921875 4.453125 1.921875q1.90625 0 3.234375 -0.78125q1.328125 -0.78125 2.328125 -2.0625l2.203125 1.71875q-2.65625 4.078125 -7.96875 4.078125zm-0.4375 -18.953125q-2.1875 0 -3.671875 1.59375q-1.484375 1.59375 -1.84375 4.46875l10.59375 0l0 -0.28125q-0.15625 -2.75 -1.484375 -4.265625q-1.328125 -1.515625 -3.59375 -1.515625zm11.988281 7.8125q0 -4.859375 2.296875 -7.8125q2.3125 -2.96875 6.046875 -2.96875q3.703125 0 5.875 2.546875l0 -11.015625l3.609375 0l0 30.0l-3.3125 0l-0.1875 -2.265625q-2.15625 2.65625 -6.03125 2.65625q-3.671875 0 -5.984375 -3.0q-2.3125 -3.015625 -2.3125 -7.859375l0 -0.28125zm3.609375 0.421875q0 3.59375 1.484375 5.625q1.484375 2.03125 4.109375 2.03125q3.4375 0 5.015625 -3.09375l0 -9.703125q-1.625 -2.984375 -4.984375 -2.984375q-2.65625 0 -4.140625 2.046875q-1.484375 2.046875 -1.484375 6.078125z" fill-rule="nonzero"></path><path fill="#000000" fill-opacity="0.0" d="m0 492.81897l282.61417 0l0 90.456726l-282.61417 0z" fill-rule="evenodd"></path><path fill="#ffffff" d="m33.21875 555.6444q-0.53125 4.515625 -3.328125 6.96875q-2.796875 2.453125 -7.453125 2.453125q-5.03125 0 -8.078125 -3.609375q-3.03125 -3.625 -3.03125 -9.671875l0 -2.734375q0 -3.96875 1.40625 -6.96875q1.421875 -3.015625 4.015625 -4.625q2.609375 -1.609375 6.015625 -1.609375q4.53125 0 7.265625 2.53125q2.734375 2.53125 3.1875 7.0l-3.765625 0q-0.484375 -3.40625 -2.125 -4.921875q-1.625 -1.53125 -4.5625 -1.53125q-3.59375 0 -5.640625 2.65625q-2.03125 2.65625 -2.03125 7.5625l0 2.75q0 4.640625 1.9375 7.375q1.9375 2.734375 5.40625 2.734375q3.125 0 4.796875 -1.421875q1.671875 -1.421875 2.21875 -4.9375l3.765625 0zm3.5976562 -1.734375q0 -3.109375 1.21875 -5.578125q1.21875 -2.484375 3.390625 -3.828125q2.1875 -1.359375 4.984375 -1.359375q4.3125 0 6.96875 3.0q2.671875 2.984375 2.671875 7.9375l0 0.265625q0 3.078125 -1.1875 5.53125q-1.171875 2.453125 -3.375 3.828125q-2.1875 1.359375 -5.046875 1.359375q-4.296875 0 -6.96875 -2.984375q-2.65625 -3.0 -2.65625 -7.921875l0 -0.25zm3.625 0.4375q0 3.515625 1.625 5.640625q1.640625 2.125 4.375 2.125q2.75 0 4.375 -2.15625q1.625 -2.15625 1.625 -6.046875q0 -3.46875 -1.65625 -5.625q-1.640625 -2.171875 -4.375 -2.171875q-2.6875 0 -4.328125 2.140625q-1.640625 2.125 -1.640625 6.09375zm23.546875 -10.8125l0.09375 2.34375q2.328125 -2.734375 6.265625 -2.734375q4.4375 0 6.03125 3.40625q1.0625 -1.53125 2.75 -2.46875q1.6875 -0.9375 4.0 -0.9375q6.953125 0 7.0625 7.375l0 14.15625l-3.609375 0l0 -13.953125q0 -2.265625 -1.046875 -3.375q-1.03125 -1.125 -3.46875 -1.125q-2.015625 0 -3.34375 1.203125q-1.328125 1.1875 -1.53125 3.21875l0 14.03125l-3.640625 0l0 -13.84375q0 -4.609375 -4.515625 -4.609375q-3.546875 0 -4.859375 3.015625l0 15.4375l-3.609375 0l0 -21.140625l3.421875 0zm49.51172 10.8125q0 4.8125 -2.21875 7.765625q-2.203125 2.953125 -5.96875 2.953125q-3.84375 0 -6.0625 -2.4375l0 10.171875l-3.609375 0l0 -29.265625l3.296875 0l0.1875 2.34375q2.203125 -2.734375 6.125 -2.734375q3.8125 0 6.03125 2.875q2.21875 2.875 2.21875 7.984375l0 0.34375zm-3.625 -0.421875q0 -3.5625 -1.53125 -5.625q-1.515625 -2.078125 -4.171875 -2.078125q-3.28125 0 -4.921875 2.90625l0 10.09375q1.625 2.890625 4.96875 2.890625q2.59375 0 4.125 -2.0625q1.53125 -2.0625 1.53125 -6.125zm18.425781 -7.140625q-0.828125 -0.140625 -1.78125 -0.140625q-3.546875 0 -4.828125 3.03125l0 15.0l-3.609375 0l0 -21.140625l3.515625 0l0.0625 2.453125q1.78125 -2.84375 5.03125 -2.84375q1.0625 0 1.609375 0.28125l0 3.359375zm12.082031 18.28125q-4.296875 0 -7.0 -2.8125q-2.6875 -2.828125 -2.6875 -7.5625l0 -0.65625q0 -3.15625 1.203125 -5.625q1.203125 -2.46875 3.359375 -3.859375q2.15625 -1.40625 4.6875 -1.40625q4.109375 0 6.390625 2.71875q2.296875 2.71875 2.296875 7.78125l0 1.5l-14.3125 0q0.078125 3.125 1.8125 5.046875q1.75 1.921875 4.453125 1.921875q1.90625 0 3.234375 -0.78125q1.328125 -0.78125 2.328125 -2.0625l2.203125 1.71875q-2.65625 4.078125 -7.96875 4.078125zm-0.4375 -18.953125q-2.1875 0 -3.671875 1.59375q-1.484375 1.59375 -1.84375 4.46875l10.59375 0l0 -0.28125q-0.15625 -2.75 -1.484375 -4.265625q-1.328125 -1.515625 -3.59375 -1.515625zm25.175781 12.953125q0 -1.46875 -1.109375 -2.265625q-1.109375 -0.8125 -3.859375 -1.390625q-2.734375 -0.59375 -4.34375 -1.40625q-1.609375 -0.828125 -2.390625 -1.953125q-0.765625 -1.140625 -0.765625 -2.703125q0 -2.609375 2.1875 -4.40625q2.203125 -1.796875 5.625 -1.796875q3.59375 0 5.828125 1.859375q2.234375 1.859375 2.234375 4.75l-3.625 0q0 -1.484375 -1.265625 -2.5625q-1.25 -1.078125 -3.171875 -1.078125q-1.96875 0 -3.09375 0.859375q-1.109375 0.859375 -1.109375 2.25q0 1.3125 1.03125 1.984375q1.046875 0.65625 3.75 1.265625q2.703125 0.59375 4.375 1.4375q1.6875 0.84375 2.5 2.03125q0.8125 1.171875 0.8125 2.875q0 2.828125 -2.265625 4.546875q-2.265625 1.703125 -5.875 1.703125q-2.546875 0 -4.5 -0.890625q-1.953125 -0.90625 -3.0625 -2.515625q-1.09375 -1.609375 -1.09375 -3.484375l3.609375 0q0.09375 1.8125 1.453125 2.875q1.359375 1.0625 3.59375 1.0625q2.046875 0 3.28125 -0.828125q1.25 -0.828125 1.25 -2.21875zm20.625 0q0 -1.46875 -1.109375 -2.265625q-1.109375 -0.8125 -3.859375 -1.390625q-2.734375 -0.59375 -4.34375 -1.40625q-1.609375 -0.828125 -2.390625 -1.953125q-0.765625 -1.140625 -0.765625 -2.703125q0 -2.609375 2.1875 -4.40625q2.203125 -1.796875 5.625 -1.796875q3.59375 0 5.828125 1.859375q2.234375 1.859375 2.234375 4.75l-3.625 0q0 -1.484375 -1.265625 -2.5625q-1.25 -1.078125 -3.171875 -1.078125q-1.96875 0 -3.09375 0.859375q-1.109375 0.859375 -1.109375 2.25q0 1.3125 1.03125 1.984375q1.046875 0.65625 3.75 1.265625q2.703125 0.59375 4.375 1.4375q1.6875 0.84375 2.5 2.03125q0.8125 1.171875 0.8125 2.875q0 2.828125 -2.265625 4.546875q-2.265625 1.703125 -5.875 1.703125q-2.546875 0 -4.5 -0.890625q-1.953125 -0.90625 -3.0625 -2.515625q-1.09375 -1.609375 -1.09375 -3.484375l3.609375 0q0.09375 1.8125 1.453125 2.875q1.359375 1.0625 3.59375 1.0625q2.046875 0 3.28125 -0.828125q1.25 -0.828125 1.25 -2.21875zm17.078125 6.0q-4.296875 0 -7.0 -2.8125q-2.6875 -2.828125 -2.6875 -7.5625l0 -0.65625q0 -3.15625 1.203125 -5.625q1.203125 -2.46875 3.359375 -3.859375q2.15625 -1.40625 4.6875 -1.40625q4.109375 0 6.390625 2.71875q2.296875 2.71875 2.296875 7.78125l0 1.5l-14.3125 0q0.078125 3.125 1.8125 5.046875q1.75 1.921875 4.453125 1.921875q1.90625 0 3.234375 -0.78125q1.328125 -0.78125 2.328125 -2.0625l2.203125 1.71875q-2.65625 4.078125 -7.96875 4.078125zm-0.4375 -18.953125q-2.1875 0 -3.671875 1.59375q-1.484375 1.59375 -1.84375 4.46875l10.59375 0l0 -0.28125q-0.15625 -2.75 -1.484375 -4.265625q-1.328125 -1.515625 -3.59375 -1.515625zm11.988281 7.8125q0 -4.859375 2.296875 -7.8125q2.3125 -2.96875 6.046875 -2.96875q3.703125 0 5.875 2.546875l0 -11.015625l3.609375 0l0 30.0l-3.3125 0l-0.1875 -2.265625q-2.15625 2.65625 -6.03125 2.65625q-3.671875 0 -5.984375 -3.0q-2.3125 -3.015625 -2.3125 -7.859375l0 -0.28125zm3.609375 0.421875q0 3.59375 1.484375 5.625q1.484375 2.03125 4.109375 2.03125q3.4375 0 5.015625 -3.09375l0 -9.703125q-1.625 -2.984375 -4.984375 -2.984375q-2.65625 0 -4.140625 2.046875q-1.484375 2.046875 -1.484375 6.078125z" fill-rule="nonzero"></path><path fill="#000000" fill-opacity="0.0" d="m450.6538 73.31852l0 44.472435" fill-rule="evenodd"></path><path stroke="#990000" stroke-width="3.0" stroke-linejoin="round" stroke-linecap="butt" d="m450.6538 73.31852l0 44.472435" fill-rule="evenodd"></path><path fill="#000000" fill-opacity="0.0" d="m605.8745 73.31852l0 44.472435" fill-rule="evenodd"></path><path stroke="#990000" stroke-width="3.0" stroke-linejoin="round" stroke-linecap="butt" d="m605.8745 73.31852l0 44.472435" fill-rule="evenodd"></path><path fill="#000000" fill-opacity="0.0" d="m450.29147 95.55933l155.74802 0" fill-rule="evenodd"></path><path stroke="#990000" stroke-width="3.0" stroke-linejoin="round" stroke-linecap="butt" d="m450.29147 95.55933l155.74802 0" fill-rule="evenodd"></path><path fill="#000000" fill-opacity="0.0" d="m445.06232 11.7164l166.20471 0l0 83.84252l-166.20471 0z" fill-rule="evenodd"></path><path fill="#ffffff" d="m491.66467 69.13829q-3.859375 -1.109375 -5.625 -2.71875q-1.75 -1.625 -1.75 -4.0q0 -2.6875 2.140625 -4.4375q2.15625 -1.765625 5.59375 -1.765625q2.34375 0 4.171875 0.90625q1.84375 0.90625 2.84375 2.5q1.015625 1.59375 1.015625 3.484375l-3.015625 0q0 -2.0625 -1.3125 -3.234375q-1.3125 -1.1875 -3.703125 -1.1875q-2.21875 0 -3.46875 0.984375q-1.234375 0.96875 -1.234375 2.703125q0 1.390625 1.171875 2.359375q1.1875 0.953125 4.015625 1.75q2.84375 0.796875 4.4375 1.765625q1.609375 0.953125 2.375 2.234375q0.78125 1.28125 0.78125 3.015625q0 2.765625 -2.15625 4.4375q-2.15625 1.65625 -5.765625 1.65625q-2.34375 0 -4.375 -0.890625q-2.03125 -0.90625 -3.140625 -2.46875q-1.09375 -1.5625 -1.09375 -3.546875l3.015625 0q0 2.0625 1.515625 3.265625q1.53125 1.1875 4.078125 1.1875q2.375 0 3.640625 -0.96875q1.265625 -0.96875 1.265625 -2.640625q0 -1.671875 -1.171875 -2.578125q-1.171875 -0.921875 -4.25 -1.8125zm15.75 -10.859375l0 4.09375l3.15625 0l0 2.234375l-3.15625 0l0 10.484375q0 1.015625 0.421875 1.53125q0.421875 0.5 1.4375 0.5q0.5 0 1.375 -0.1875l0 2.34375q-1.140625 0.3125 -2.21875 0.3125q-1.9375 0 -2.921875 -1.171875q-0.984375 -1.171875 -0.984375 -3.328125l0 -10.484375l-3.078125 0l0 -2.234375l3.078125 0l0 -4.09375l2.890625 0zm14.703125 6.6875q-0.65625 -0.109375 -1.421875 -0.109375q-2.84375 0 -3.859375 2.421875l0 12.0l-2.890625 0l0 -16.90625l2.8125 0l0.046875 1.953125q1.421875 -2.265625 4.03125 -2.265625q0.84375 0 1.28125 0.21875l0 2.6875zm1.890625 5.703125q0 -2.484375 0.96875 -4.46875q0.984375 -1.984375 2.71875 -3.0625q1.75 -1.078125 3.984375 -1.078125q3.453125 0 5.578125 2.390625q2.140625 2.390625 2.140625 6.359375l0 0.203125q0 2.46875 -0.953125 4.4375q-0.9375 1.953125 -2.703125 3.046875q-1.75 1.09375 -4.03125 1.09375q-3.4375 0 -5.578125 -2.390625q-2.125 -2.390625 -2.125 -6.328125l0 -0.203125zm2.90625 0.34375q0 2.8125 1.296875 4.515625q1.3125 1.703125 3.5 1.703125q2.203125 0 3.5 -1.71875q1.296875 -1.734375 1.296875 -4.84375q0 -2.78125 -1.328125 -4.5q-1.3125 -1.734375 -3.5 -1.734375q-2.140625 0 -3.453125 1.703125q-1.3125 1.703125 -1.3125 4.875zm20.828125 0.4375l-1.8125 1.890625l0 5.9375l-2.890625 0l0 -24.0l2.890625 0l0 14.515625l1.546875 -1.859375l5.265625 -5.5625l3.515625 0l-6.578125 7.0625l7.34375 9.84375l-3.390625 0l-5.890625 -7.828125zm18.515625 8.140625q-3.4375 0 -5.59375 -2.25q-2.15625 -2.265625 -2.15625 -6.046875l0 -0.53125q0 -2.515625 0.953125 -4.484375q0.96875 -1.984375 2.6875 -3.09375q1.734375 -1.125 3.75 -1.125q3.296875 0 5.125 2.171875q1.828125 2.171875 1.828125 6.21875l0 1.203125l-11.453125 0q0.0625 2.5 1.453125 4.046875q1.40625 1.53125 3.5625 1.53125q1.53125 0 2.59375 -0.625q1.0625 -0.625 1.859375 -1.65625l1.765625 1.375q-2.125 3.265625 -6.375 3.265625zm-0.359375 -15.15625q-1.75 0 -2.9375 1.28125q-1.1875 1.265625 -1.46875 3.5625l8.46875 0l0 -0.21875q-0.125 -2.203125 -1.1875 -3.40625q-1.0625 -1.21875 -2.875 -1.21875z" fill-rule="nonzero"></path><path fill="#000000" fill-opacity="0.0" d="m567.43164 324.00616l0 44.472443" fill-rule="evenodd"></path><path stroke="#990000" stroke-width="3.0" stroke-linejoin="round" stroke-linecap="butt" d="m567.43164 324.00616l0 44.472443" fill-rule="evenodd"></path><path fill="#000000" fill-opacity="0.0" d="m605.8745 324.00616l0 44.472443" fill-rule="evenodd"></path><path stroke="#990000" stroke-width="3.0" stroke-linejoin="round" stroke-linecap="butt" d="m605.8745 324.00616l0 44.472443" fill-rule="evenodd"></path><path fill="#000000" fill-opacity="0.0" d="m567.43164 345.13214l38.740173 0" fill-rule="evenodd"></path><path stroke="#990000" stroke-width="3.0" stroke-linejoin="round" stroke-linecap="butt" d="m567.43164 345.13214l38.740173 0" fill-rule="evenodd"></path><path fill="#000000" fill-opacity="0.0" d="m535.7149 240.68028l102.17322 0l0 83.842514l-102.17322 0z" fill-rule="evenodd"></path><path fill="#ffffff" d="m568.9734 298.10217q-3.859375 -1.109375 -5.625 -2.71875q-1.75 -1.625 -1.75 -4.0q0 -2.6875 2.140625 -4.4375q2.15625 -1.765625 5.59375 -1.765625q2.34375 0 4.171875 0.90625q1.84375 0.90625 2.84375 2.5q1.015625 1.59375 1.015625 3.484375l-3.015625 0q0 -2.0625 -1.3125 -3.234375q-1.3125 -1.1875 -3.703125 -1.1875q-2.21875 0 -3.46875 0.984375q-1.234375 0.96875 -1.234375 2.703125q0 1.390625 1.171875 2.359375q1.1875 0.953125 4.015625 1.75q2.84375 0.796875 4.4375 1.765625q1.609375 0.953125 2.375 2.234375q0.78125 1.28125 0.78125 3.015625q0 2.765625 -2.15625 4.4375q-2.15625 1.65625 -5.765625 1.65625q-2.34375 0 -4.375 -0.890625q-2.03125 -0.90625 -3.140625 -2.46875q-1.09375 -1.5625 -1.09375 -3.546875l3.015625 0q0 2.0625 1.515625 3.265625q1.53125 1.1875 4.078125 1.1875q2.375 0 3.640625 -0.96875q1.265625 -0.96875 1.265625 -2.640625q0 -1.671875 -1.171875 -2.578125q-1.171875 -0.921875 -4.25 -1.8125zm22.265625 10.140625q-0.25 -0.5 -0.40625 -1.78125q-2.015625 2.09375 -4.8125 2.09375q-2.5 0 -4.109375 -1.40625q-1.59375 -1.421875 -1.59375 -3.59375q0 -2.640625 2.0 -4.09375q2.015625 -1.46875 5.65625 -1.46875l2.8125 0l0 -1.328125q0 -1.515625 -0.90625 -2.40625q-0.90625 -0.90625 -2.671875 -0.90625q-1.546875 0 -2.59375 0.78125q-1.046875 0.78125 -1.046875 1.890625l-2.90625 0q0 -1.265625 0.890625 -2.4375q0.90625 -1.1875 2.4375 -1.875q1.546875 -0.6875 3.390625 -0.6875q2.921875 0 4.578125 1.46875q1.65625 1.453125 1.71875 4.015625l0 7.78125q0 2.328125 0.59375 3.703125l0 0.25l-3.03125 0zm-4.796875 -2.203125q1.359375 0 2.578125 -0.703125q1.21875 -0.703125 1.765625 -1.828125l0 -3.46875l-2.265625 0q-5.3125 0 -5.3125 3.109375q0 1.359375 0.90625 2.125q0.90625 0.765625 2.328125 0.765625zm11.078125 -6.390625q0 -3.953125 1.828125 -6.28125q1.828125 -2.34375 4.84375 -2.34375q3.09375 0 4.828125 2.1875l0.140625 -1.875l2.640625 0l0 16.5q0 3.28125 -1.953125 5.171875q-1.9375 1.890625 -5.21875 1.890625q-1.828125 0 -3.578125 -0.78125q-1.75 -0.78125 -2.671875 -2.140625l1.5 -1.734375q1.859375 2.296875 4.546875 2.296875q2.109375 0 3.28125 -1.1875q1.1875 -1.1875 1.1875 -3.34375l0 -1.453125q-1.734375 2.0 -4.734375 2.0q-2.96875 0 -4.8125 -2.390625q-1.828125 -2.390625 -1.828125 -6.515625zm2.90625 0.328125q0 2.859375 1.171875 4.5q1.171875 1.625 3.28125 1.625q2.734375 0 4.015625 -2.484375l0 -7.71875q-1.328125 -2.421875 -3.984375 -2.421875q-2.109375 0 -3.296875 1.640625q-1.1875 1.640625 -1.1875 4.859375z" fill-rule="nonzero"></path></g></svg>

